HIERARCHY
ROOT Hips
{
	OFFSET 0.000000 0.000000 0.000000
	CHANNELS 6 Xposition Yposition Zposition Zrotation Yrotation Xrotation 
	JOINT LHipJoint
	{
		OFFSET 0.000000 0.000000 0.000000
		CHANNELS 3 Zrotation Yrotation Xrotation
		JOINT LeftUpLeg
		{
			OFFSET 1.363060 -1.794630 0.839290
			CHANNELS 3 Zrotation Yrotation Xrotation
			JOINT LeftLeg
			{
				OFFSET 2.448110 -6.726130 0.000000
				CHANNELS 3 Zrotation Yrotation Xrotation
				JOINT LeftFoot
				{
					OFFSET 2.562200 -7.039590 0.000000
					CHANNELS 3 Zrotation Yrotation Xrotation
					JOINT LeftToeBase
					{
						OFFSET 0.157640 -0.433110 2.322550
						CHANNELS 3 Zrotation Yrotation Xrotation
						End Site
						{
							OFFSET 0.000000 0.000000 0.000000
						}
					}
				}
			}
		}
	}
	JOINT RHipJoint
	{
		OFFSET 0.000000 0.000000 0.000000
		CHANNELS 3 Zrotation Yrotation Xrotation
		JOINT RightUpLeg
		{
			OFFSET -1.305520 -1.794630 0.839290
			CHANNELS 3 Zrotation Yrotation Xrotation
			JOINT RightLeg
			{
				OFFSET -2.542530 -6.985550 0.000000
				CHANNELS 3 Zrotation Yrotation Xrotation
				JOINT RightFoot
				{
					OFFSET -2.568260 -7.056230 0.000000
					CHANNELS 3 Zrotation Yrotation Xrotation
					JOINT RightToeBase
					{
						OFFSET -0.164730 -0.452590 2.363150
						CHANNELS 3 Zrotation Yrotation Xrotation
						End Site
						{
							OFFSET 0.000000 0.000000 0.000000
						}
					}
				}
			}
		}
	}
	JOINT LowerBack
	{
		OFFSET 0.000000 0.000000 0.000000
		CHANNELS 3 Zrotation Yrotation Xrotation
		JOINT Spine
		{
			OFFSET 0.028270 2.035590 -0.193380
			CHANNELS 3 Zrotation Yrotation Xrotation
			JOINT Spine1
			{
				OFFSET 0.056720 2.048850 -0.042750
				CHANNELS 3 Zrotation Yrotation Xrotation
				JOINT Neck
				{
					OFFSET 0.000000 0.000000 0.000000
					CHANNELS 3 Zrotation Yrotation Xrotation
					JOINT Neck1
					{
						OFFSET -0.054170 1.746240 0.172020
						CHANNELS 3 Zrotation Yrotation Xrotation
						JOINT Head
						{
							OFFSET 0.104070 1.761360 -0.123970
							CHANNELS 3 Zrotation Yrotation Xrotation
							End Site
							{
								OFFSET 0.000000 0.000000 0.000000
							}
						}
					}
				}
				JOINT LeftShoulder
				{
					OFFSET 0.000000 0.000000 0.000000
					CHANNELS 3 Zrotation Yrotation Xrotation
					JOINT LeftArm
					{
						OFFSET 3.362410 1.200890 -0.311210
						CHANNELS 3 Zrotation Yrotation Xrotation
						JOINT LeftForeArm
						{
							OFFSET 4.983000 -0.000000 -0.000000
							CHANNELS 3 Zrotation Yrotation Xrotation
							JOINT LeftHand
							{
								OFFSET 3.483560 -0.000000 -0.000000
								CHANNELS 3 Zrotation Yrotation Xrotation
								JOINT LeftFingerBase
								{
									OFFSET 0.000000 0.000000 0.000000
									CHANNELS 3 Zrotation Yrotation Xrotation
									JOINT LeftHandIndex1
									{
										OFFSET 0.715260 -0.000000 -0.000000
										CHANNELS 3 Zrotation Yrotation Xrotation
										End Site
										{
											OFFSET 0.000000 0.000000 0.000000
										}
									}
								}
								JOINT LThumb
								{
									OFFSET 0.000000 0.000000 0.000000
									CHANNELS 3 Zrotation Yrotation Xrotation
									End Site
									{
										OFFSET 0.000000 0.000000 0.000000
									}
								}
							}
						}
					}
				}
				JOINT RightShoulder
				{
					OFFSET 0.000000 0.000000 0.000000
					CHANNELS 3 Zrotation Yrotation Xrotation
					JOINT RightArm
					{
						OFFSET -3.136600 1.374050 -0.404650
						CHANNELS 3 Zrotation Yrotation Xrotation
						JOINT RightForeArm
						{
							OFFSET -5.241900 -0.000000 -0.000000
							CHANNELS 3 Zrotation Yrotation Xrotation
							JOINT RightHand
							{
								OFFSET -3.444170 -0.000000 -0.000000
								CHANNELS 3 Zrotation Yrotation Xrotation
								JOINT RightFingerBase
								{
									OFFSET 0.000000 0.000000 0.000000
									CHANNELS 3 Zrotation Yrotation Xrotation
									JOINT RightHandIndex1
									{
										OFFSET -0.622530 -0.000000 -0.000000
										CHANNELS 3 Zrotation Yrotation Xrotation
										End Site
										{
											OFFSET 0.000000 0.000000 0.000000
										}
									}
								}
								JOINT RThumb
								{
									OFFSET 0.000000 0.000000 0.000000
									CHANNELS 3 Zrotation Yrotation Xrotation
									End Site
									{
										OFFSET 0.000000 0.000000 0.000000
									}
								}
							}
						}
					}
				}
			}
		}
	}
}
MOTION
Frames: 5
Frame Time: 0.008333
-12.515079 17.035131 -1.283934 38.400475 87.852119 62.125307 -11.337027 2.112379 -2.678363 -7.640662 3.272948 -9.242349 -1.549116 1.427904 26.153145 0.201532 -0.789239 3.416113 -0.082600 -0.000000 -74.559800 8.005928 0.486738 1.578348 6.022872 8.691179 -41.053863 2.197253 -0.145812 12.300954 -0.589720 -3.497523 5.319154 -1.629200 -0.000000 -22.917700 4.534058 -1.728969 4.027593 -0.105425 -1.875618 -2.023091 -7.486048 -1.959539 0.842477 10.276954 3.851354 4.820456 -4.824586 -0.408863 2.981041 0.000000 0.000000 0.000000 -7.626909 -8.364681 2.384854 -56.212552 -28.741801 13.776033 -3.295579 -32.768155 -0.015899 7.487037 -2.946802 -0.208994 -0.152440 0.197758 0.000000 0.000000 0.000000 0.000000 0.000000 0.000000 0.000000 20.858897 -0.427850 0.367611 58.479046 12.477977 -6.369960 2.895323 23.616934 0.007483 -0.418155 7.175035 -0.030044 0.060127 -0.073497 -0.000000 0.000000 0.000000 0.000000 0.000000 0.000000 0.000000 
-12.357943 17.045304 -1.271463 30.250798 88.149725 54.097587 -11.501291 2.113451 -2.653848 -6.957609 3.412107 -9.565763 -1.425301 1.519041 27.051101 0.228954 -0.852010 4.428376 -0.128601 0.000000 -75.480499 7.866727 0.416046 1.566312 6.534061 9.117804 -41.081111 2.207646 -0.224597 13.613953 -0.692842 -3.816880 4.163409 -1.626700 -0.000000 -21.821900 5.266169 -1.660161 4.000535 0.050655 -1.835342 -2.055266 -7.424328 -1.928616 0.794930 10.224219 4.118014 4.825396 -4.817242 -0.408249 2.986008 0.000000 0.000000 0.000000 -7.837737 -8.237619 2.329196 -57.320281 -27.510404 13.605585 -3.271231 -31.803555 -0.015595 7.601527 -2.961881 -0.212446 -0.145956 0.189465 0.000000 0.000000 0.000000 0.000000 0.000000 0.000000 0.000000 20.744989 -0.198397 0.385669 58.371138 12.755708 -6.910231 2.952784 22.685148 0.007654 -0.506083 7.128451 -0.035549 0.062806 -0.072889 -0.000000 0.000000 0.000000 0.000000 0.000000 0.000000 0.000000 
-12.203324 17.057855 -1.255916 16.139834 88.497952 40.094919 -11.542698 2.107840 -2.657900 -6.258674 3.600694 -9.958386 -1.296661 1.607168 28.077977 0.259969 -0.929298 5.513462 -0.184400 0.000000 -75.926901 7.842384 0.370068 1.559188 7.099747 9.476084 -40.990931 2.229513 -0.295045 14.704667 -0.801716 -4.117402 2.975505 -1.597500 -0.000000 -21.098800 6.058436 -1.605711 4.002371 0.220511 -1.804187 -2.078978 -7.366305 -1.906429 0.740427 10.223129 4.400500 4.838087 -4.804340 -0.407391 2.992866 0.000000 0.000000 0.000000 -7.927368 -8.128054 2.270492 -58.469097 -26.247620 13.374401 -3.231352 -30.776870 -0.015440 7.727442 -2.947186 -0.214205 -0.138748 0.181337 0.000000 0.000000 0.000000 0.000000 0.000000 0.000000 0.000000 20.652349 0.048414 0.401413 58.313732 13.074727 -7.497073 3.009966 21.715933 0.007800 -0.558621 7.047191 -0.038553 0.065272 -0.072154 -0.000000 0.000000 0.000000 0.000000 0.000000 0.000000 0.000000 
-12.051390 17.071988 -1.236396 -7.641992 89.165853 16.392740 -11.456698 1.981596 -2.701237 -5.533638 3.754124 -10.385510 -1.091887 1.628296 29.276457 0.285182 -1.024493 6.673429 -0.245300 -0.000000 -75.802400 7.900126 0.231382 1.597936 7.665232 9.681553 -40.826305 2.269341 -0.394985 15.539477 -0.929701 -4.420745 1.779208 -1.543900 0.000000 -20.667600 6.940406 -1.678603 4.000727 0.441650 -1.887189 -2.098239 -7.305296 -1.998553 0.685890 10.298461 4.670696 4.860779 -4.782990 -0.406442 3.002757 0.000000 0.000000 0.000000 -7.889097 -8.118142 2.228974 -59.651302 -24.938190 13.087270 -3.183178 -29.710346 -0.015410 7.848470 -2.900525 -0.213661 -0.131428 0.173969 0.000000 0.000000 0.000000 0.000000 0.000000 0.000000 0.000000 20.593856 0.234740 0.403286 58.295825 13.440934 -8.093334 3.061071 20.715082 0.007885 -0.589091 6.938369 -0.039959 0.067299 -0.070879 -0.000000 0.000000 0.000000 0.000000 0.000000 0.000000 0.000000 
-11.902161 17.087069 -1.212664 137.197279 89.805429 161.269625 -11.803696 1.685714 -2.726185 -5.043946 3.860453 -10.878837 -0.794755 1.583630 30.591769 0.317248 -1.087091 7.907440 -0.306600 0.000000 -75.039700 7.511915 -0.154433 1.622662 7.975793 9.640096 -40.587529 2.322061 -0.479118 16.182395 -1.042194 -4.657549 0.620221 -1.474400 -0.000000 -20.441700 7.223024 -1.936730 3.973757 0.582007 -2.140662 -2.126247 -7.207880 -2.261744 0.652376 10.461078 4.903556 4.875550 -4.749142 -0.405560 3.009976 0.000000 0.000000 0.000000 -7.722596 -8.227929 2.199934 -60.827212 -23.604003 12.781660 -3.144680 -28.642217 -0.015319 7.945300 -2.813244 -0.209509 -0.125711 0.167019 0.000000 0.000000 0.000000 0.000000 0.000000 0.000000 0.000000 20.592022 0.316449 0.393461 58.330892 13.862175 -8.675262 3.092179 19.687392 0.007800 -0.607486 6.810276 -0.040367 0.067989 -0.068872 -0.000000 0.000000 0.000000 0.000000 0.000000 0.000000 0.000000 
